<?xml version="1.0" encoding="UTF-8"?>
<svg width="20px" height="20px" viewBox="0 0 20 20" version="1.1" xmlns="http://www.w3.org/2000/svg" xmlns:xlink="http://www.w3.org/1999/xlink">
    <title>icon/icon_eye</title>
    <g id="Symbols" stroke="none" stroke-width="1" fill="none" fill-rule="evenodd">
        <g id="icon/icon_eye" fill="#9B9B9B" fill-rule="nonzero">
            <path d="M10,3.5 C13.8411696,3.5 16.9964489,5.60351952 19.4310818,9.74668501 L19.4310818,9.74668501 L19.5799363,10 L19.4310818,10.253315 C16.9964489,14.3964805 13.8411696,16.5 10,16.5 C6.15883035,16.5 3.00355107,14.3964805 0.568918201,10.253315 L0.568918201,10.253315 L0.420063661,10 L0.568918201,9.74668501 C3.00355107,5.60351952 6.15883035,3.5 10,3.5 Z M10,4.5 C6.6187439,4.5 3.82373703,6.31342537 1.58248131,10 C3.82373703,13.6865746 6.6187439,15.5 10,15.5 C13.3812561,15.5 16.176263,13.6865746 18.4175187,10 C16.176263,6.31342537 13.3812561,4.5 10,4.5 Z M10,6.5 C11.9329966,6.5 13.5,8.06700338 13.5,10 C13.5,11.9329966 11.9329966,13.5 10,13.5 C8.06700338,13.5 6.5,11.9329966 6.5,10 C6.5,8.06700338 8.06700338,6.5 10,6.5 Z M10,7.5 C8.61928813,7.5 7.5,8.61928813 7.5,10 C7.5,11.3807119 8.61928813,12.5 10,12.5 C11.3807119,12.5 12.5,11.3807119 12.5,10 C12.5,8.61928813 11.3807119,7.5 10,7.5 Z" id="Combined-Shape"></path>
        </g>
    </g>
</svg>