<?xml version="1.0" encoding="UTF-8"?>
<svg width="20px" height="20px" viewBox="0 0 20 20" version="1.1" xmlns="http://www.w3.org/2000/svg" xmlns:xlink="http://www.w3.org/1999/xlink">
    <title>icon/icon_wishheart</title>
    <g id="Symbols" stroke="none" stroke-width="1" fill="none" fill-rule="evenodd">
        <g id="icon/icon_wishheart" fill="#979797" fill-rule="nonzero">
            <path d="M3.8,14.5 C3.08202983,14.5 2.5,13.9179702 2.5,13.2 L2.5,3.88888889 C2.5,1.46497249 4.46497249,-0.5 6.88888889,-0.5 C9.31280529,-0.5 11.2777778,1.46497249 11.2777777,3.88905557 L11.2771667,5.72204762 L13.1111111,5.72222222 C15.5350275,5.72222222 17.5,7.68719471 17.5,10.1111111 C17.5,12.5350275 15.5350275,14.5 13.1108969,14.5 L3.8,14.5 Z M9.7554581,13.5 L9.75433951,13.4985618 L13.1111111,13.5 C14.9827428,13.5 16.5,11.9827428 16.5,10.1111111 C16.5,8.23947946 14.9827428,6.72222222 13.1110635,6.72222222 L10.2768333,6.72195238 L10.2777778,3.88888889 C10.2777778,2.01725724 8.76052054,0.5 6.88888889,0.5 C5.01725724,0.5 3.5,2.01725724 3.5,3.88888889 L3.5,13.2 C3.5,13.3656854 3.63431458,13.5 3.8,13.5 L9.7554581,13.5 Z" id="Combined-Shape" transform="translate(10.000000, 7.000000) rotate(-45.000000) translate(-10.000000, -7.000000) "></path>
        </g>
    </g>
</svg>