<?xml version="1.0" encoding="UTF-8"?>
<svg width="24px" height="24px" viewBox="0 0 24 24" version="1.1" xmlns="http://www.w3.org/2000/svg" xmlns:xlink="http://www.w3.org/1999/xlink">
    <title>icon/icon_wishheart</title>
    <g id="Symbols" stroke="none" stroke-width="1" fill="none" fill-rule="evenodd" opacity="0.699999988">
        <g id="icon/icon_wishheart" fill="#000000" fill-rule="nonzero">
            <path d="M4.56,17.4 C3.69843579,17.4 3,16.7015642 3,15.84 L3,4.66666667 C3,1.75796698 5.35796698,-0.6 8.26666667,-0.6 C11.1753663,-0.6 13.5333333,1.75796698 13.5333333,4.66686669 L13.5326,6.86645714 L15.7333333,6.86666667 C18.642033,6.86666667 21,9.22463365 21,12.1333333 C21,15.042033 18.642033,17.4 15.7330763,17.4 L4.56,17.4 Z M11.7065497,16.2 L11.7052074,16.1982742 L15.7333333,16.2 C17.9792913,16.2 19.8,14.3792913 19.8,12.1333333 C19.8,9.88737535 17.9792913,8.06666667 15.7332762,8.06666666 L12.3322,8.06634286 L12.3333333,4.66666667 C12.3333333,2.42070868 10.5126246,0.6 8.26666667,0.6 C6.02070868,0.6 4.2,2.42070868 4.2,4.66666667 L4.2,15.84 C4.2,16.0388225 4.36117749,16.2 4.56,16.2 L11.7065497,16.2 Z" id="Combined-Shape" transform="translate(12.000000, 8.400000) rotate(-45.000000) translate(-12.000000, -8.400000) "></path>
        </g>
    </g>
</svg>