<?xml version="1.0" encoding="UTF-8"?>
<svg width="20px" height="20px" viewBox="0 0 20 20" version="1.1" xmlns="http://www.w3.org/2000/svg" xmlns:xlink="http://www.w3.org/1999/xlink">
    <title>icon/icon_star</title>
    <g id="Symbols" stroke="none" stroke-width="1" fill="none" fill-rule="evenodd" opacity="0.699999988">
        <g id="icon/icon_star" fill="#000000" fill-rule="nonzero">
            <path d="M10,16 L5.91561963,18.1472858 C5.42677504,18.4042866 4.82214789,18.2163401 4.56514708,17.7274955 C4.46280801,17.5328351 4.42749334,17.309867 4.46467018,17.0931094 L5.24471742,12.545085 L1.94038429,9.32415622 C1.54490071,8.93865501 1.5368084,8.30554174 1.92230962,7.91005817 C2.07581822,7.75257453 2.27696063,7.65008735 2.49459766,7.61846284 L7.06107374,6.95491503 L9.10326392,2.81698575 C9.34768622,2.32173209 9.94731205,2.11839309 10.4425657,2.36281539 C10.6397783,2.46014562 10.7994058,2.61977315 10.8967361,2.81698575 L12.9389263,6.95491503 L17.5054023,7.61846284 C18.0519472,7.69788046 18.4306287,8.20532331 18.351211,8.75186817 C18.3195865,8.96950521 18.2170993,9.17064762 18.0596157,9.32415622 L14.7552826,12.545085 L15.5353298,17.0931094 C15.6286908,17.6374458 15.263103,18.1544017 14.7187666,18.2477627 C14.5020089,18.2849396 14.2790408,18.2496249 14.0843804,18.1472858 L10,16 Z M14.5497215,17.2621544 L13.680802,12.1959651 L17.361604,8.60806986 L12.2748607,7.86892279 L10,3.25955146 L7.72513925,7.86892279 L2.63839598,8.60806986 L6.31919799,12.1959651 L5.4502785,17.2621544 L10,14.8702243 L14.5497215,17.2621544 Z" id="Star"></path>
        </g>
    </g>
</svg>