<?xml version="1.0" encoding="UTF-8"?>
<svg width="20px" height="20px" viewBox="0 0 20 20" version="1.1" xmlns="http://www.w3.org/2000/svg" xmlns:xlink="http://www.w3.org/1999/xlink">
    <title>icon/icon_download</title>
    <g id="Symbols" stroke="none" stroke-width="1" fill="none" fill-rule="evenodd">
        <g id="icon/icon_download" fill="#FFFFFF" fill-rule="nonzero">
            <path d="M8.01506367,2.5 L8.01506367,3.5 L5,3.5 C4.17157288,3.5 3.5,4.17157288 3.5,5 L3.5,5 L3.5,15 C3.5,15.8284271 4.17157288,16.5 5,16.5 L5,16.5 L15,16.5 C15.8284271,16.5 16.5,15.8284271 16.5,15 L16.5,15 L16.5,5 C16.5,4.17157288 15.8284271,3.5 15,3.5 L15,3.5 L12.0191792,3.5 L12.0191792,2.5 L15,2.5 C16.3807119,2.5 17.5,3.61928813 17.5,5 L17.5,5 L17.5,15 C17.5,16.3807119 16.3807119,17.5 15,17.5 L15,17.5 L5,17.5 C3.61928813,17.5 2.5,16.3807119 2.5,15 L2.5,15 L2.5,5 C2.5,3.61928813 3.61928813,2.5 5,2.5 L5,2.5 L8.01506367,2.5 Z M10.5,2.50980169 L10.5,11.4498017 L12.4768542,9.47487373 L13.183961,10.1819805 L10.0019805,13.363961 L6.82,10.1819805 L7.52710678,9.47487373 L9.5,11.4478017 L9.5,2.50980169 L10.5,2.50980169 Z" id="Combined-Shape"></path>
        </g>
    </g>
</svg>