<?xml version="1.0" encoding="UTF-8"?>
<svg width="20px" height="20px" viewBox="0 0 20 20" version="1.1" xmlns="http://www.w3.org/2000/svg" xmlns:xlink="http://www.w3.org/1999/xlink">
    <title>icon/icon_time</title>
    <g id="Symbols" stroke="none" stroke-width="1" fill="none" fill-rule="evenodd">
        <g id="icon/icon_time" fill="#9B9B9B" fill-rule="nonzero">
            <path d="M10,2.5 C14.1421356,2.5 17.5,5.85786438 17.5,10 C17.5,14.1421356 14.1421356,17.5 10,17.5 C5.85786438,17.5 2.5,14.1421356 2.5,10 C2.5,5.85786438 5.85786438,2.5 10,2.5 Z M10,3.5 C6.41014913,3.5 3.5,6.41014913 3.5,10 C3.5,13.5898509 6.41014913,16.5 10,16.5 C13.5898509,16.5 16.5,13.5898509 16.5,10 C16.5,6.41014913 13.5898509,3.5 10,3.5 Z M10.5,5 L10.5,10.5 L14,10.5 L14,11.5 L9.5,11.5 L9.5,5 L10.5,5 Z" id="Combined-Shape"></path>
        </g>
    </g>
</svg>