<?xml version="1.0" encoding="UTF-8"?>
<svg width="20px" height="20px" viewBox="0 0 20 20" version="1.1" xmlns="http://www.w3.org/2000/svg" xmlns:xlink="http://www.w3.org/1999/xlink">
    <title>icon/icon_people</title>
    <g id="Symbols" stroke="none" stroke-width="1" fill="none" fill-rule="evenodd" opacity="0.699999988">
        <g id="icon/icon_people" fill="#000000" fill-rule="nonzero">
            <path d="M11.0769231,10.5714286 C14.3481481,10.5714286 17,13.2097506 17,16.4642857 L17,17 L3,17 L3,16.4642857 C3,13.2097506 5.65185187,10.5714286 8.92307692,10.5714286 L11.0769231,10.5714286 Z M11.0769231,11.6428571 L8.92307692,11.6428571 C6.42862496,11.6428571 4.37435473,13.5178837 4.10650011,15.9285714 L15.8934999,15.9285714 C15.6256453,13.5178837 13.571375,11.6428571 11.0769231,11.6428571 Z M10,2 C12.0816887,2 13.7692308,3.67893219 13.7692308,5.75 C13.7692308,7.82106781 12.0816887,9.5 10,9.5 C7.91831133,9.5 6.23076923,7.82106781 6.23076923,5.75 C6.23076923,3.67893219 7.91831133,2 10,2 Z M10,3.07142857 C8.51307952,3.07142857 7.30769231,4.27066585 7.30769231,5.75 C7.30769231,7.22933415 8.51307952,8.42857143 10,8.42857143 C11.4869205,8.42857143 12.6923077,7.22933415 12.6923077,5.75 C12.6923077,4.27066585 11.4869205,3.07142857 10,3.07142857 Z" id="Combined-Shape"></path>
        </g>
    </g>
</svg>