<?xml version="1.0" encoding="UTF-8"?>
<svg width="20px" height="20px" viewBox="0 0 20 20" version="1.1" xmlns="http://www.w3.org/2000/svg" xmlns:xlink="http://www.w3.org/1999/xlink">
    <title>icon/icon_error</title>
    <g id="Symbols" stroke="none" stroke-width="1" fill="none" fill-rule="evenodd">
        <g id="icon/icon_error" fill="#FF4848">
            <path d="M10,3 C13.8659932,3 17,6.13400675 17,10 C17,13.8659932 13.8659932,17 10,17 C6.13400675,17 3,13.8659932 3,10 C3,6.13400675 6.13400675,3 10,3 Z M10,12 C9.44771525,12 9,12.4477153 9,13 C9,13.5522847 9.44771525,14 10,14 C10.5522847,14 11,13.5522847 11,13 C11,12.4477153 10.5522847,12 10,12 Z M10.75,6 L9.25,6 L9.25,11 L10.75,11 L10.75,6 Z" id="Combined-Shape"></path>
        </g>
    </g>
</svg>