<?xml version="1.0" encoding="UTF-8"?>
<svg width="20px" height="20px" viewBox="0 0 20 20" version="1.1" xmlns="http://www.w3.org/2000/svg" xmlns:xlink="http://www.w3.org/1999/xlink">
    <title>icon/icon_delete</title>
    <g id="Symbols" stroke="none" stroke-width="1" fill="none" fill-rule="evenodd">
        <g id="icon/icon_delete">
            <path d="M10.4497475,6.44974747 L10.4487475,9.44874747 L13.4497475,9.44974747 L13.4497475,10.4497475 L10.4487475,10.4487475 L10.4497475,13.4497475 L9.44974747,13.4497475 L9.44874747,10.4487475 L6.44974747,10.4497475 L6.44974747,9.44974747 L9.44874747,9.44874747 L9.44974747,6.44974747 L10.4497475,6.44974747 Z" id="Combined-Shape" fill="#999999" transform="translate(9.949747, 9.949747) rotate(-315.000000) translate(-9.949747, -9.949747) "></path>
            <path d="M10,17.5 C14.1421356,17.5 17.5,14.1421356 17.5,10 C17.5,5.85786438 14.1421356,2.5 10,2.5 C5.85786438,2.5 2.5,5.85786438 2.5,10 C2.5,14.1421356 5.85786438,17.5 10,17.5 Z M10,16.5 C6.41014913,16.5 3.5,13.5898509 3.5,10 C3.5,6.41014913 6.41014913,3.5 10,3.5 C13.5898509,3.5 16.5,6.41014913 16.5,10 C16.5,13.5898509 13.5898509,16.5 10,16.5 Z" id="Combined-Shape" fill="#9B9B9B" fill-rule="nonzero"></path>
        </g>
    </g>
</svg>