<svg height="20" viewBox="0 0 20 20" width="20" xmlns="http://www.w3.org/2000/svg"><path d="m14.1327046 2.5c.7464756 0 1.3793567.54889486 1.4821633 1.27068332l.6661321 3.72931668h.719c.8284271 0 1.5.67157288 1.5 1.5v4c0 .8284271-.6715729 1.5-1.5 1.5h-.5v1.5c0 .8284271-.6715729 1.5-1.5 1.5h-1c-.8284271 0-1.5-.6715729-1.5-1.5v-1.5h-5v1.5c0 .8284271-.67157288 1.5-1.5 1.5h-1c-.82842712 0-1.5-.6715729-1.5-1.5v-1.5h-.5c-.82842712 0-1.5-.6715729-1.5-1.5v-4c0-.82842712.67157288-1.5 1.5-1.5h.718l.66437116-3.71213203c.09896961-.69278729.66139836-1.21851362 1.34639226-1.28152321l.13853198-.00634476zm-7.6327046 12h-2v1.5c0 .2761424.22385763.5.5.5h1c.27614237 0 .5-.2238576.5-.5zm9 0h-2v1.5c0 .2761424.2238576.5.5.5h1c.2761424 0 .5-.2238576.5-.5zm1.5-6h-14c-.27614237 0-.5.22385763-.5.5v4c0 .2761424.22385763.5.5.5h14c.2761424 0 .5-.2238576.5-.5v-4c0-.27614237-.2238576-.5-.5-.5zm-12 1.5c.55228475 0 1 .4477153 1 1s-.44771525 1-1 1-1-.4477153-1-1 .44771525-1 1-1zm10 0c.5522847 0 1 .4477153 1 1s-.4477153 1-1 1-1-.4477153-1-1 .4477153-1 1-1zm-.8672954-6.5h-8.2654092c-.24882519 0-.45978555.18296495-.4977357.44647396l-.6345597 3.55352604h10.529l-.6363207-3.57071068c-.0307905-.21553382-.1961558-.38255809-.4037095-.42094644z" fill="#979797"/></svg>