
<svg width="24px" height="24px" viewBox="0 0 24 24" version="1.1" xmlns="http://www.w3.org/2000/svg" xmlns:xlink="http://www.w3.org/1999/xlink">
    <g id="Symbols" stroke="none" stroke-width="1" fill="none" fill-rule="evenodd">
        <g id="card/news_328" transform="translate(-16.000000, -16.000000)">
            <g id="Group-11" transform="translate(16.000000, 16.000000)">
                <circle id="Oval" fill="#000000" cx="12" cy="12" r="12"></circle>
                <path d="M6.29547395,16.8591549 C7.04241389,16.8591549 7.60261884,16.6525822 7.97608881,16.2394366 C8.34955878,15.8262911 8.53629377,15.2206573 8.53629377,14.4225352 L8.53629377,14.4225352 L8.53629377,9.43661972 C8.53629377,8.63849765 8.34955878,8.03286385 7.97608881,7.61971831 C7.60261884,7.20657277 7.04241389,7 6.29547395,7 L6.29547395,7 L4,7 L4,16.8591549 L6.29547395,16.8591549 Z M6.26814688,15.4507042 L5.5029889,15.4507042 L5.5029889,8.4084507 L6.26814688,8.4084507 C6.51409052,8.4084507 6.70310276,8.48356808 6.8351836,8.63380282 C6.96726445,8.78403756 7.03330487,9.02816901 7.03330487,9.36619718 L7.03330487,9.36619718 L7.03330487,14.4929577 C7.03330487,14.8309859 6.96726445,15.0751174 6.8351836,15.2253521 C6.70310276,15.3755869 6.51409052,15.4507042 6.26814688,15.4507042 L6.26814688,15.4507042 Z M11.118702,17 C11.4375178,17 11.7039567,16.9248826 11.9180188,16.7746479 C12.1320808,16.6244131 12.3210931,16.3943662 12.4850555,16.084507 L12.4850555,16.084507 L12.5123826,16.084507 C12.5306006,16.3943662 12.5761457,16.6525822 12.6490179,16.8591549 L12.6490179,16.8591549 L14.1520068,16.8591549 C14.0791346,16.6901408 14.0335895,16.5187793 14.0153715,16.3450704 C13.9971534,16.1713615 13.9880444,15.943662 13.9880444,15.6619718 L13.9880444,15.6619718 L13.9880444,12.4225352 L14.411614,12.4225352 L14.411614,11.0140845 L13.9880444,11.0140845 L13.9880444,9.91549296 L12.5123826,9.91549296 L12.5123826,11.0140845 L11.9248506,11.0140845 C11.6242528,11.0140845 11.3988044,10.9342723 11.2485056,10.7746479 C11.0982067,10.6150235 11.0230572,10.3474178 11.0230572,9.97183099 L11.0230572,9.97183099 L11.0230572,9.36619718 C11.0230572,9.02816901 11.0890976,8.78403756 11.2211785,8.63380282 C11.3532593,8.48356808 11.5422716,8.4084507 11.7882152,8.4084507 L11.7882152,8.4084507 L13.4824936,8.4084507 L13.4824936,7 L11.7608881,7 C11.0139482,7 10.4537432,7.20657277 10.0802733,7.61971831 C9.7068033,8.03286385 9.52006832,8.63849765 9.52006832,9.43661972 L9.52006832,9.43661972 L9.52006832,9.61971831 C9.52006832,10.1455399 9.60432679,10.5751174 9.77284372,10.9084507 C9.94136066,11.241784 10.2032451,11.4835681 10.558497,11.6338028 L10.558497,11.6338028 L10.558497,11.6619718 C10.166809,11.8215962 9.88442926,12.0751174 9.71135781,12.4225352 C9.53828636,12.7699531 9.45175064,13.2018779 9.45175064,13.7183099 L9.45175064,13.7183099 L9.45175064,14.7464789 C9.45175064,15.4788732 9.59294051,16.0375587 9.87532024,16.4225352 C10.1577,16.8075117 10.5721605,17 11.118702,17 Z M11.6789069,15.5915493 C11.4511813,15.5915493 11.2735554,15.5211268 11.146029,15.3802817 C11.0185027,15.2394366 10.9547395,15.0046948 10.9547395,14.6760563 L10.9547395,14.6760563 L10.9547395,13.6760563 C10.9547395,13.2253521 11.0321662,12.9037559 11.1870196,12.7112676 C11.341873,12.5187793 11.5923712,12.4225352 11.9385141,12.4225352 L11.9385141,12.4225352 L12.5123826,12.4225352 L12.5123826,14.7042254 C12.4304014,15.2957746 12.1525761,15.5915493 11.6789069,15.5915493 Z M16.2425278,16.8591549 L16.5157985,14.9295775 L18.2237404,14.9295775 L18.2237404,14.9014085 L18.4970111,16.8591549 L20,16.8591549 L18.442357,7 L16.4064902,7 L14.8488471,16.8591549 L16.2425278,16.8591549 Z M18.0461144,13.5915493 L16.6934244,13.5915493 L17.3492741,8.71830986 L17.3766012,8.71830986 L18.0461144,13.5915493 Z" id="D&amp;A" fill="#FFFFFF" fill-rule="nonzero"></path>
            </g>
        </g>
    </g>
</svg>