<?xml version="1.0" encoding="UTF-8"?>
<svg width="20px" height="20px" viewBox="0 0 20 20" version="1.1" xmlns="http://www.w3.org/2000/svg" xmlns:xlink="http://www.w3.org/1999/xlink">
    <title>icon/icon_price</title>
    <g id="Symbols" stroke="none" stroke-width="1" fill="none" fill-rule="evenodd">
        <g id="icon/icon_price" fill="#979797" fill-rule="nonzero">
            <path d="M10.5892857,2 L10.589,4.585 L15.5,4.58574186 L15.5,5.78891033 L6.66071429,5.78891033 C6.11829176,5.78891033 5.67857143,6.23780773 5.67857143,6.79155073 L5.67857143,6.79155073 L5.67857143,8.39577536 C5.67857143,8.94951837 6.11829176,9.39841576 6.66071429,9.39841576 L6.66071429,9.39841576 L13.3392857,9.39841576 C14.5326153,9.39841576 15.5,10.38599 15.5,11.6042246 L15.5,11.6042246 L15.5,13.2084493 C15.5,14.4266839 14.5326153,15.4142581 13.3392857,15.4142581 L13.3392857,15.4142581 L10.589,15.414 L10.5892857,18 L9.41071429,18 L9.41,15.414 L4.5,15.4142581 L4.5,14.2110897 L13.3392857,14.2110897 C13.8817082,14.2110897 14.3214286,13.7621923 14.3214286,13.2084493 L14.3214286,13.2084493 L14.3214286,11.6042246 C14.3214286,11.0504816 13.8817082,10.6015842 13.3392857,10.6015842 L13.3392857,10.6015842 L6.66071429,10.6015842 C5.46738474,10.6015842 4.5,9.61400997 4.5,8.39577536 L4.5,8.39577536 L4.5,6.79155073 C4.5,5.57331613 5.46738474,4.58574186 6.66071429,4.58574186 L6.66071429,4.58574186 L9.41,4.585 L9.41071429,2 L10.5892857,2 Z" id="Combined-Shape"></path>
        </g>
    </g>
</svg>