<?xml version="1.0" encoding="UTF-8"?>
<svg width="20px" height="20px" viewBox="0 0 20 20" version="1.1" xmlns="http://www.w3.org/2000/svg" xmlns:xlink="http://www.w3.org/1999/xlink">
    <title>icon/icon_mail_w</title>
    <g id="Symbols" stroke="none" stroke-width="1" fill="none" fill-rule="evenodd">
        <g id="icon/icon_mail_w" fill="#FFFFFF" fill-rule="nonzero">
            <path d="M17,3.5 C17.8284271,3.5 18.5,4.17157288 18.5,5 L18.5,15 C18.5,15.8284271 17.8284271,16.5 17,16.5 L3,16.5 C2.17157288,16.5 1.5,15.8284271 1.5,15 L1.5,5 C1.5,4.17157288 2.17157288,3.5 3,3.5 L17,3.5 Z M2.5,6.099 L2.5,15 C2.5,15.2761424 2.72385763,15.5 3,15.5 L17,15.5 C17.2761424,15.5 17.5,15.2761424 17.5,15 L17.5,6.103 L10.9828987,11.5147917 C10.4683665,11.9420153 9.73931975,11.9736711 9.192932,11.6091052 L9.07026577,11.5179407 L2.5,6.099 Z M17,4.5 L3,4.5 C2.78450066,4.5 2.60084335,4.63633196 2.5305712,4.82745277 L9.70654164,10.7464791 C9.89174952,10.8992324 10.1593821,10.8987918 10.344086,10.7454294 L10.344086,10.7454294 L17.469781,4.82841363 C17.3997718,4.63678907 17.2158603,4.5 17,4.5 Z" id="Combined-Shape"></path>
        </g>
    </g>
</svg>