<?xml version="1.0" encoding="UTF-8"?>
<svg width="20px" height="20px" viewBox="0 0 20 20" version="1.1" xmlns="http://www.w3.org/2000/svg" xmlns:xlink="http://www.w3.org/1999/xlink">
    <title>icon/icon_phone</title>
    <g id="Symbols" stroke="none" stroke-width="1" fill="none" fill-rule="evenodd">
        <g id="icon/icon_phone" fill="#9B9B9B" fill-rule="nonzero" stroke="#979797" stroke-width="0.2">
            <path d="M14.6888594,17.8398789 C13.2986582,17.8398789 11.8210938,17.4459883 10.2938008,16.6688945 C8.88672461,15.9523047 7.49724414,14.9269023 6.27493164,13.7030254 C5.05181055,12.4783574 4.02791992,11.0866445 3.31213867,9.67914648 C2.5365918,8.1521875 2.14268359,6.67344531 2.14268359,5.28366602 C2.14268359,4.38276953 2.98261914,3.51256445 3.34279492,3.18032031 C3.86156055,2.70254687 4.67783594,2.14461719 5.27097461,2.14461719 C5.5659707,2.14461719 5.91166211,2.33774805 6.35923633,2.75194141 C6.69339648,3.06119336 7.06890039,3.48041406 7.4444043,3.96358398 C7.67123242,4.25557422 8.8024375,5.74579492 8.8024375,6.46082031 C8.8024375,7.04710352 8.13875781,7.45516211 7.43746094,7.88586133 C7.16616016,8.05216797 6.88649219,8.22501367 6.68335938,8.38748828 C6.4665332,8.56068555 6.42823047,8.6526543 6.4220957,8.67292188 C7.16700391,10.5302617 9.443125,12.8063828 11.2999727,13.5505176 C11.3161094,13.5451387 11.407252,13.5083828 11.5843867,13.2892012 C11.7468086,13.086877 11.91925,12.805627 12.0862422,12.5350996 C12.516959,11.8330996 12.924666,11.1701582 13.5110547,11.1701582 C14.225957,11.1701582 15.7157734,12.3005898 16.0085547,12.5274004 C16.491373,12.9036777 16.9106113,13.2799902 17.2193887,13.613377 C17.6340918,14.0601602 17.8272051,14.4065547 17.8272051,14.7016211 C17.8272051,15.2947773 17.2692754,16.11325 16.7917656,16.6343711 C16.4591523,16.9968672 15.588543,17.8406523 14.6881738,17.8406523 L14.6888594,17.8398789 L14.6888594,17.8398789 Z M5.26708984,2.929375 C5.05639844,2.93318945 4.49083984,3.19067383 3.87620312,3.75739258 C3.29220508,4.29581055 2.92895312,4.880125 2.92895312,5.28366602 C2.92895312,10.5639414 9.41398047,17.0550859 14.6888418,17.0550859 C15.0919785,17.0550859 15.6759414,16.6903398 16.2139199,16.1032832 C16.7818516,15.484832 17.0393887,14.9169355 17.0431504,14.7054355 C17.0179258,14.5567246 16.6047871,13.9765937 15.4759902,13.1067578 C14.5049219,12.3603203 13.7186523,11.9587305 13.515625,11.9541602 C13.5009824,11.9579922 13.4136191,11.9917246 13.2358164,12.2177793 C13.0810059,12.4147422 12.9154727,12.6837227 12.7545625,12.9443184 C12.3146523,13.6593437 11.8992461,14.3352754 11.2961758,14.3352754 C11.1988281,14.3352754 11.1037656,14.3161152 11.011832,14.2793418 C8.9510957,13.4555078 6.51559375,11.0191797 5.69167188,8.95955078 C5.59288281,8.7124375 5.57753711,8.32462891 6.06343164,7.88355859 C6.32248047,7.64904883 6.68030078,7.42909375 7.02752148,7.21569531 C7.28809961,7.05552344 7.55785352,6.88999023 7.75406055,6.73477539 C7.9800625,6.55663867 8.01379492,6.46848438 8.01767969,6.45468555 C8.01224805,6.25195703 7.61150195,5.46489648 6.86504688,4.49430273 C5.99517578,3.36503125 5.41508008,2.9531582 5.26638672,2.92708984 L5.26710742,2.929375 L5.26708984,2.929375 Z" id="Shape"></path>
        </g>
    </g>
</svg>