<?xml version="1.0" encoding="UTF-8"?>
<svg width="20px" height="20px" viewBox="0 0 20 20" version="1.1" xmlns="http://www.w3.org/2000/svg" xmlns:xlink="http://www.w3.org/1999/xlink">
    <title>icon/icon_location</title>
    <g id="Symbols" stroke="none" stroke-width="1" fill="none" fill-rule="evenodd">
        <g id="icon/icon_location" fill="#9B9B9B" fill-rule="nonzero">
            <path d="M10,1.5 C13.7125808,1.5 16.7222222,4.5096414 16.7222222,8.22222222 C16.7222222,10.6864321 14.5918648,14.0341366 10.3568894,18.3501856 L10.3568894,18.3501856 L10,18.7139072 L9.64311055,18.3501856 C5.40813523,14.0341366 3.27777778,10.6864321 3.27777778,8.22222222 C3.27777778,4.5096414 6.28741918,1.5 10,1.5 Z M10,2.5 C6.83970393,2.5 4.27777778,5.06192615 4.27777778,8.22222222 C4.27777778,10.2769568 6.1773482,13.3230969 10,17.2831394 C13.8226518,13.3230969 15.7222222,10.2769568 15.7222222,8.22222222 C15.7222222,5.06192615 13.1602961,2.5 10,2.5 Z M10,5.5 C11.3807119,5.5 12.5,6.61928813 12.5,8 C12.5,9.38071187 11.3807119,10.5 10,10.5 C8.61928813,10.5 7.5,9.38071187 7.5,8 C7.5,6.61928813 8.61928813,5.5 10,5.5 Z M10,6.5 C9.17157288,6.5 8.5,7.17157288 8.5,8 C8.5,8.82842712 9.17157288,9.5 10,9.5 C10.8284271,9.5 11.5,8.82842712 11.5,8 C11.5,7.17157288 10.8284271,6.5 10,6.5 Z" id="Combined-Shape"></path>
        </g>
    </g>
</svg>