<?xml version="1.0" encoding="UTF-8"?>
<svg width="20px" height="20px" viewBox="0 0 20 20" version="1.1" xmlns="http://www.w3.org/2000/svg" xmlns:xlink="http://www.w3.org/1999/xlink">
    <title>icon/icon_password</title>
    <g id="Symbols" stroke="none" stroke-width="1" fill="none" fill-rule="evenodd">
        <g id="icon/icon_password" fill="#9B9B9B" fill-rule="nonzero">
            <g id="Group" transform="translate(3.000000, 2.000000)">
                <path d="M3.76923077,6.46153846 L10.2307692,6.46153846 C12.3124579,6.46153846 14,8.14908056 14,10.2307692 L14,12.3846154 C14,14.4663041 12.3124579,16.1538462 10.2307692,16.1538462 L3.76923077,16.1538462 C1.6875421,16.1538462 0,14.4663041 0,12.3846154 L0,10.2307692 C0,8.14908056 1.6875421,6.46153846 3.76923077,6.46153846 Z M3.76923077,7.53846154 C2.28231029,7.53846154 1.07692308,8.74384875 1.07692308,10.2307692 L1.07692308,12.3846154 C1.07692308,13.8715359 2.28231029,15.0769231 3.76923077,15.0769231 L10.2307692,15.0769231 C11.7176897,15.0769231 12.9230769,13.8715359 12.9230769,12.3846154 L12.9230769,10.2307692 C12.9230769,8.74384875 11.7176897,7.53846154 10.2307692,7.53846154 L3.76923077,7.53846154 Z" id="Rectangle"></path>
                <path d="M5.92307692,0 L8.07692308,0 C9.56384356,0 10.7692308,1.20538721 10.7692308,2.69230769 L10.7692308,7.53846154 L3.23076923,7.53846154 L3.23076923,2.69230769 C3.23076923,1.20538721 4.43615644,0 5.92307692,0 Z M9.69230769,6.46153846 L9.69230769,2.69230769 C9.69230769,1.8001554 8.96907537,1.07692308 8.07692308,1.07692308 L5.92307692,1.07692308 C5.03092463,1.07692308 4.30769231,1.8001554 4.30769231,2.69230769 L4.30769231,6.46153846 L9.69230769,6.46153846 Z" id="Rectangle-Copy"></path>
                <path d="M7,9.69230769 C7.89215229,9.69230769 8.61538462,10.41554 8.61538462,11.3076923 C8.61538462,12.1998446 7.89215229,12.9230769 7,12.9230769 C6.10784771,12.9230769 5.38461538,12.1998446 5.38461538,11.3076923 C5.38461538,10.41554 6.10784771,9.69230769 7,9.69230769 Z M7,10.7692308 C6.7026159,10.7692308 6.46153846,11.0103082 6.46153846,11.3076923 C6.46153846,11.6050764 6.7026159,11.8461538 7,11.8461538 C7.2973841,11.8461538 7.53846154,11.6050764 7.53846154,11.3076923 C7.53846154,11.0103082 7.2973841,10.7692308 7,10.7692308 Z" id="Rectangle"></path>
            </g>
        </g>
    </g>
</svg>